<svg width="34" height="32" viewBox="0 0 34 32" fill="none" xmlns="http://www.w3.org/2000/svg">
<g id="graph-increase">
<path id="union-1" fill-rule="evenodd" clip-rule="evenodd" d="M4.25004 2.66667C5.03244 2.66667 5.66671 3.26363 5.66671 4.00001V25.3333C5.66671 26.0697 6.30097 26.6667 7.08337 26.6667H29.75C30.5324 26.6667 31.1667 27.2636 31.1667 28C31.1667 28.7364 30.5324 29.3333 29.75 29.3333H7.08337C4.73616 29.3333 2.83337 27.5425 2.83337 25.3333V4.00001C2.83337 3.26363 3.46764 2.66667 4.25004 2.66667ZM27.9325 9.73723C28.4778 10.2652 28.4652 11.1093 27.9042 11.6227L22.8042 16.2893C22.5398 16.5313 22.1855 16.6667 21.8167 16.6667H15.5919L10.9042 20.956C10.3433 21.4693 9.44636 21.4574 8.90096 20.9294C8.35557 20.4015 8.3682 19.5573 8.92918 19.044L14.0292 14.3773C14.2936 14.1354 14.6479 14 15.0167 14H21.2416L25.9292 9.71068C26.4902 9.19736 27.3871 9.20925 27.9325 9.73723Z" fill="white"/>
</g>
</svg>
